<svg xmlns="http://www.w3.org/2000/svg" width="1280" height="4446" fill="none" xmlns:v="https://vecta.io/nano"><g stroke="#b1cfc7"><path d="M0 3902.5h125m-125 22h125m-125 24h125m1017-372h125m-125 22h125"/><path d="M52.5 4385v-948m1160 886v-948m20 948v-948m-18.44-970v490m19.94-556v620M70.5 2660v490M83 2385.97v2059.06"/><path d="M-.002 2523h129.004M0 2277.5h152m847.996 147h274.014m-274.01 13h274.01"/><use href="#B"/><use href="#B"/><use href="#B"/><path d="M197.001 2224H-.001"/><path d="M197.001 2224H-.001"/><path d="M197.001 2224H-.001"/><use href="#C"/><use href="#C"/><use href="#C"/><path d="M1151.5 1553v850m15.5-1071v906m84.5-1206v906m-1219 330v-586m70.986 498v-624M1164.5 3v876M83.5 66v752M62 54v2301M21.5 0v832m13-832v832M1263.43-.001V1938M1232.5 0v832m-16-832v832"/><path d="M1280 114.5H-.001M1280 90.5H0m992.005-24H0m992.005-12H0m248 586.75H0m231 12.25H0m1248-56h-172m172 16h-172m203 17h-172"/></g><defs ><path id="B" d="M1280 2186.49l-212 .01"/><path id="C" d="M196.002 2237.5H-1"/></defs></svg>