<svg xmlns="http://www.w3.org/2000/svg" width="1280" height="4377" fill="none" xmlns:v="https://vecta.io/nano"><style><![CDATA[.B{fill:#f5fdfb}.C{fill:#edf3f1}.D{fill:#b1cfc7}.E{fill:#fff5e9}.F{fill:#ebebeb}]]></style><path d="M1185 3964h55v256h-55z" class="B"/><path d="M1116 3023h118v105h-118zM0 4219h25v158H0zm1187-1842h46v53h-46z" class="C"/><path d="M0 2229h49v335H0z" class="B"/><path d="M13 2394h154v94H13z" class="C"/><path d="M1188 2703h92v56h-92zM1 798h42v56H1zm30 1824h59v59H31z" class="D"/><path d="M1136 2043h94v154h-94zM25 3051h94v154H25zm38-1148h41v217H63zm-27-627h57v165H36z" class="B"/><path d="M1105 2178h62v38h-62z" class="F"/><path d="M34 106h163v274H34z" class="B"/><path d="M109 564h88v81h-88zM65 182h88v55H65zm1151 525h48v119h-48z" class="C"/><path d="M333 58h659v48H333zm593-43h34v27h-34zM22 515h120v70H22z" class="B"/><path d="M965 0h27v20h-27zm122 88h129v13h-129z" class="E"/><path d="M960 106h304v274H960z" class="B"/><path d="M1099 349h165v139h-165zM168 106h135v131H168z" class="C"/><path d="M1244 3076h20v116h-20z" class="E"/><path d="M1134 13h130v69h-130zM780 46h146v50H780zM51 10h32v50H51z" class="C"/><g class="E"><path d="M1087 326h60v61h-60zM182 550h56v16h-56zM72 585h22v23H72zM21 46h87v103H21z"/><circle cx="63" cy="2102" r="35"/></g><circle cx="120.5" cy="2167.5" r="16.5" class="D"/><circle cx="47" cy="1830" r="20" class="B"/><g class="D"><circle cx="81.5" cy="2194.5" r="10.5"/><circle cx="1240.5" cy="1668.5" r="10.5"/><circle cx="1203.5" cy="2553.5" r="10.5"/><circle cx="1251.5" cy="1626.5" r="10.5"/></g><g class="C"><circle cx="194.5" cy="2303.5" r="27.5"/><circle cx="139.5" cy="3009.5" r="41.5"/></g><g class="D"><circle cx="42" cy="3305" r="21"/><circle cx="55.5" cy="3730.5" r="42.5"/></g><circle cx="1203" cy="4249" r="30" class="E"/><g class="B"><circle cx="1212.5" cy="3925.5" r="9.5"/><circle cx="1214.5" cy="3518.5" r="50.5"/></g><g class="D"><circle cx="25" cy="3643" r="18"/><circle cx="36.5" cy="3591.5" r="6.5"/><circle cx="1247" cy="3423" r="18"/><circle cx="1217.5" cy="3354.5" r="12.5"/></g><g class="E"><circle cx="62.5" cy="3255.5" r="12.5"/><circle cx="1236" cy="2631" r="31"/></g><g class="C"><circle cx="1230.5" cy="2011.5" r="21.5"/><circle cx="64.5" cy="1514.5" r="21.5"/></g><g class="E"><circle cx="17" cy="1542" r="6"/><circle cx="1191" cy="1907" r="52"/><circle cx="1198.5" cy="831.5" r="39.5"/></g><g class="D"><circle cx="1087.5" cy="52.5" r="11.5"/><circle cx="1223.5" cy="177.5" r="24.5"/><circle cx="35.5" cy="525.5" r="13.5"/><circle cx="199.5" cy="45.5" r="31.5"/></g><g class="B"><circle cx="162" cy="66" r="20"/><circle cx="395" cy="20" r="15"/><circle cx="1228" cy="392" r="12"/></g><g class="D"><circle cx="108.5" cy="45.5" r="15.5"/><circle cx="90" cy="25" r="5"/><circle cx="13" cy="225" r="5"/></g><g class="F"><circle cx="21" cy="213" r="5"/><circle cx="1214" cy="326" r="34"/><circle cx="54" cy="900" r="29"/></g><circle cx="1166.5" cy="514.5" r="14.5" class="C"/><g class="E"><circle cx="49" cy="304" r="27"/><circle cx="290" cy="107" r="21"/></g><circle cx="76" cy="286" r="14" class="F"/><circle cx="1107" cy="28" r="8" class="D"/><g class="C"><circle cx="1119.5" cy="148.5" r="20.5"/><circle cx="1019" cy="10" r="5"/><circle cx="44" cy="5" r="5"/></g><circle cx="1075.5" cy="588.5" r="20.5" class="E"/></svg>