<svg xmlns="http://www.w3.org/2000/svg" width="1265" height="4349" fill="none" xmlns:v="https://vecta.io/nano"><style><![CDATA[.B{fill:#6b2527}.C{fill:#530c3f}.D{fill:#26222c}.E{fill:#402d4f}.F{fill:#653956}.G{fill:#0e0025}.H{fill:#55001f}.I{fill:#090019}]]></style><path d="M1185 3964h55v256h-55zm-69-941h118v105h-118z" class="H"/><path d="M0 4191h25v158H0z" class="F"/><path d="M1 798h42v56H1z" class="B"/><path d="M25 3051h94v154H25z" class="E"/><path d="M63 1903h41v217H63z" class="B"/><path d="M36 1276h57v165H36zM34 106h163v274H34zm75 458h88v81h-88z" class="C"/><path d="M65 182h88v55H65z" class="F"/><path d="M1216 707h48v119h-48z" class="D"/><path d="M333 58h659v48H333z" class="C"/><path d="M926 15h34v27h-34z" class="E"/><path d="M22 515h120v70H22z" class="B"/><path d="M965 0h27v20h-27z" class="G"/><path d="M1087 88h129v13h-129z" class="E"/><path d="M960 106h304v274H960z" class="H"/><path d="M1099 349h165v139h-165z" class="C"/><path d="M168 106h135v131H168zm1076 2970h20v116h-20zM1134 13h130v69h-130z" class="E"/><path d="M780 46h146v50H780zM51 10h32v50H51zm1036 316h60v61h-60z" class="B"/><path d="M182 550h56v16h-56z" class="D"/><path d="M72 585h22v23H72z" class="C"/><path d="M21 46h87v103H21z" class="D"/><circle cx="47" cy="1830" r="20" class="E"/><circle cx="1240.5" cy="1668.5" r="10.5" class="C"/><circle cx="1251.5" cy="1626.5" r="10.5" class="D"/><circle cx="139.5" cy="3009.5" r="41.5" class="H"/><g class="D"><circle cx="42" cy="3305" r="21"/><circle cx="55.5" cy="3730.5" r="42.5"/></g><circle cx="1203" cy="4249" r="30" class="G"/><circle cx="1212.5" cy="3925.5" r="9.5" class="B"/><circle cx="1214.5" cy="3518.5" r="50.5" class="C"/><circle cx="25" cy="3643" r="18" class="B"/><circle cx="36.5" cy="3591.5" r="6.5" class="C"/><circle cx="1247" cy="3423" r="18" class="D"/><circle cx="1217.5" cy="3354.5" r="12.5" class="B"/><circle cx="62.5" cy="3255.5" r="12.5" class="C"/><circle cx="64.5" cy="1514.5" r="21.5" class="D"/><circle cx="17" cy="1542" r="6" class="B"/><circle cx="1191" cy="1907" r="52" class="C"/><g class="B"><circle cx="1198.5" cy="831.5" r="39.5"/><circle cx="1087.5" cy="52.5" r="11.5"/></g><circle cx="1223.5" cy="177.5" r="24.5" class="D"/><circle cx="35.5" cy="525.5" r="13.5" class="F"/><circle cx="199.5" cy="45.5" r="31.5" class="B"/><circle cx="162" cy="66" r="20" class="G"/><circle cx="395" cy="20" r="15" class="E"/><circle cx="1228" cy="392" r="12" class="I"/><circle cx="108.5" cy="45.5" r="15.5" class="F"/><circle cx="90" cy="25" r="5" class="I"/><g class="C"><circle cx="13" cy="225" r="5"/><circle cx="21" cy="213" r="5"/></g><g class="E"><circle cx="1214" cy="326" r="34"/><circle cx="54" cy="900" r="29"/></g><circle cx="1166.5" cy="514.5" r="14.5" class="C"/><circle cx="49" cy="304" r="27" class="D"/><circle cx="290" cy="107" r="21" class="F"/><circle cx="76" cy="286" r="14" class="I"/><circle cx="1107" cy="28" r="8" class="F"/><circle cx="1119.5" cy="148.5" r="20.5" class="G"/><circle cx="1019" cy="10" r="5" class="B"/><g class="E"><circle cx="44" cy="5" r="5"/><circle cx="1075.5" cy="588.5" r="20.5"/></g></svg>