<svg xmlns="http://www.w3.org/2000/svg" width="1271" height="407" fill="none" xmlns:v="https://vecta.io/nano"><path d="M71 123h45v284H71zm1117 121h85v78h-85z" fill="#f5fdfb"/><path d="M95 321h67v60H95zm715-189h366v92H810z" fill="#edf3f1"/><path fill="#f5fdfb" d="M887 337h224v35H887z"/><path fill="#b1cfc7" d="M1183 185h66v39h-66z"/><path fill="#fff5e9" d="M340 322h176v50H340z"/><g fill="#ebebeb"><circle cx="63" cy="195" r="53"/><circle cx="175" cy="309" r="7"/><circle cx="1212.5" cy="56.5" r="36.5"/></g><circle cx="1194" cy="157" r="11" fill="#b1cfc7"/><circle cx="1159.5" cy="116.5" r="6.5" fill="#fff5e9"/><circle cx="74" cy="41" r="41" fill="#f5fdfb"/><circle cx="33" cy="150" r="33" fill="#edf3f1"/><circle cx="111.5" cy="350.5" r="16.5" fill="#b1cfc7"/></svg>