<?xml version="1.0" encoding="UTF-8"?>
<svg version="1.1" xmlns="http://www.w3.org/2000/svg" width="56" height="42">
<path d="M0 0 C0.33 0 0.66 0 1 0 C1 4.62 1 9.24 1 14 C3.31 14 5.62 14 8 14 C8 16.97 8 19.94 8 23 C9.65 23 11.3 23 13 23 C13 23.66 13 24.32 13 25 C11.35 25 9.7 25 8 25 C8 27.97 8 30.94 8 34 C5.69 34 3.38 34 1 34 C1 36.64 1 39.28 1 42 C0.67 42 0.34 42 0 42 C0 39.36 0 36.72 0 34 C-3.96 34 -7.92 34 -12 34 C-12 31.03 -12 28.06 -12 25 C-22.23 25 -32.46 25 -43 25 C-43 24.34 -43 23.68 -43 23 C-32.77 23 -22.54 23 -12 23 C-12 20.03 -12 17.06 -12 14 C-8.04 14 -4.08 14 0 14 C0 9.38 0 4.76 0 0 Z " fill="#692D3B" transform="translate(43,0)"/>
<path d="M0 0 C3.96 0 7.92 0 12 0 C12 2.97 12 5.94 12 9 C8.04 9 4.08 9 0 9 C0 6.03 0 3.06 0 0 Z " fill="#6B2426" transform="translate(31,14)"/>
<path d="M0 0 C1.99954746 -0.04254356 4.00041636 -0.04080783 6 0 C7 1 7 1 7.09765625 3.06640625 C7.08605469 3.89011719 7.07445312 4.71382812 7.0625 5.5625 C7.05347656 6.38878906 7.04445313 7.21507812 7.03515625 8.06640625 C7.01775391 9.02353516 7.01775391 9.02353516 7 10 C4.69 10 2.38 10 0 10 C0 6.7 0 3.4 0 0 Z " fill="#6B2427" transform="translate(44,24)"/>
<path d="M0 0 C2.31 0 4.62 0 7 0 C7 2.97 7 5.94 7 9 C4.69 9 2.38 9 0 9 C0 6.03 0 3.06 0 0 Z " fill="#6B2427" transform="translate(44,14)"/>
</svg>
